# xmcd
#
# Track frame offsets: 
#        150
#        30672
#        65347
#        95720
#        127640
#        152080
#        194312
#        215802
#        243267
#        270795
#        312477
#
# Disc length: 4633 seconds
#
# Revision: 22
# Processed by: cddbd v1.5.2PL0 Copyright (c) Steve Scherf et al.
# Submitted via: ExactAudioCopy v1.2
#
DISCID=9112170b
DTITLE=Various Artist - Ken Burns Jazz: The Story of America's Music [CD4]
DYEAR=2000
DGENRE=Jazz
TTITLE0=Horace Silver And The Jazz Messengers - Doodlin' [1954]
TTITLE1=Clifford Brown And Max Roach - I Get A Kick Out Of You [1954]
TTITLE2=Sonny Rollins - St. Thomas [1956]
TTITLE3=The Modern Jazz Quartet - Django [1954]
TTITLE4=The Dave Brubeck Quartet - Take Five [1959]
TTITLE5=Miles Davis Sextet - So What [1959]
TTITLE6=John Coltrane Quartet - Giant Steps [1959]
TTITLE7=Cecil Taylor Trio - Rick Kick Shaw [1955]
TTITLE8=Ornette Coleman - Chronology [1959]
TTITLE9=Charles Mingus - Original Faubus Fables [1960]
TTITLE10=John Coltrane Quartet - Acknowledgment (From A Love Supreme) 
TTITLE10=[1964]
EXTD=
EXTT0=
EXTT1=
EXTT2=
EXTT3=
EXTT4=
EXTT5=
EXTT6=
EXTT7=
EXTT8=
EXTT9=
EXTT10=
PLAYORDER=
